<?xml version="1.0" encoding="UTF-8"?>
<svg id="Lag_1" data-name="Lag 1" xmlns="http://www.w3.org/2000/svg" viewBox="0 0 52.3 77.12">
  <defs>
    <style>
      .cls-1 {
        fill: none;
        stroke: #000;
        stroke-miterlimit: 10;
        stroke-width: .5px;
      }

      .cls-2 {
        font-family: Arial-Black, 'Arial Black';
        font-size: 17px;
        font-weight: 800;
      }

      .cls-3 {
        letter-spacing: -.02em;
      }
    </style>
  </defs>
  <text class="cls-2" transform="translate(.66 14.59)"><tspan x="0" y="0">ZE</tspan><tspan class="cls-3" x="24.55" y="0">R</tspan><tspan x="37.49" y="0">O</tspan></text>
  <line class="cls-1" x1=".79" y1="15.89" x2="51.09" y2="15.7"/>
  <g>
    <path d="M1.25,17.74h7.04c1.17,0,2.07.29,2.7.87.63.58.94,1.3.94,2.16,0,.72-.22,1.34-.67,1.85-.3.34-.74.61-1.31.81.87.21,1.52.57,1.93,1.08.41.51.62,1.16.62,1.93,0,.63-.15,1.2-.44,1.7s-.69.9-1.2,1.2c-.32.18-.79.32-1.43.4-.85.11-1.41.17-1.69.17H1.25v-12.17ZM5.05,22.51h1.64c.59,0,.99-.1,1.22-.3.23-.2.34-.49.34-.88,0-.35-.11-.63-.34-.83-.23-.2-.63-.3-1.2-.3h-1.66v2.31ZM5.05,27.29h1.92c.65,0,1.1-.11,1.37-.34.27-.23.4-.54.4-.93,0-.36-.13-.65-.39-.87-.26-.22-.72-.33-1.38-.33h-1.91v2.47Z"/>
    <path d="M21.95,17.74h3.75v7.25c0,.72-.11,1.4-.34,2.04-.22.64-.58,1.2-1.05,1.68-.48.48-.98.81-1.51,1.01-.73.27-1.61.41-2.63.41-.59,0-1.24-.04-1.94-.12s-1.29-.25-1.76-.49c-.47-.25-.9-.6-1.29-1.05-.39-.45-.66-.92-.8-1.4-.23-.77-.35-1.46-.35-2.06v-7.25h3.75v7.42c0,.66.18,1.18.55,1.56.37.37.88.56,1.53.56s1.16-.18,1.52-.55.55-.89.55-1.56v-7.42Z"/>
    <path d="M27.88,17.74h10.64v2.43l-6.83,7.12h7.08v2.61h-11.55v-2.52l6.76-7.05h-6.1v-2.6Z"/>
    <path d="M40.16,17.74h10.64v2.43l-6.83,7.12h7.08v2.61h-11.55v-2.52l6.76-7.05h-6.1v-2.6Z"/>
    <path d="M1.29,43.91v-12.17h6.27c1.16,0,2.05.1,2.66.3s1.11.57,1.49,1.11c.38.54.56,1.2.56,1.97,0,.68-.14,1.26-.43,1.75-.29.49-.68.89-1.19,1.19-.32.19-.76.35-1.32.48.45.15.77.3.98.45.14.1.34.31.6.64.26.33.44.58.53.76l1.82,3.53h-4.25l-2.01-3.72c-.25-.48-.48-.79-.68-.94-.27-.19-.58-.28-.92-.28h-.33v4.94H1.29ZM5.07,36.67h1.59c.17,0,.5-.06,1-.17.25-.05.45-.18.61-.38.16-.2.24-.44.24-.71,0-.39-.12-.69-.37-.9s-.72-.32-1.4-.32h-1.65v2.47Z"/>
    <path d="M1.24,45.74h10.08v2.6h-6.31v1.93h5.85v2.48h-5.85v2.4h6.49v2.76H1.24v-12.17Z"/>
    <path d="M0,59.74h3.57l1.29,6.81,1.88-6.81h3.56l1.89,6.8,1.29-6.8h3.55l-2.68,12.17h-3.69l-2.13-7.66-2.13,7.66h-3.69L0,59.74Z"/>
  </g>
</svg>